<?xml version="1.0" encoding="UTF-8"?>
<svg width="246px" height="36px" viewBox="0 0 246 36" version="1.1" xmlns="http://www.w3.org/2000/svg" xmlns:xlink="http://www.w3.org/1999/xlink">
    <!-- Generator: Sketch 55.1 (78136) - https://sketchapp.com -->
    <title>logo</title>
    <desc>Created with Sketch.</desc>
    <g id="Symbols" stroke="none" stroke-width="1" fill="none" fill-rule="evenodd">
        <g id="footer/desktop" transform="translate(-80.000000, -42.000000)">
            <g id="footer">
                <g id="logo">
                    <g transform="translate(80.000000, 42.000000)">
                        <g id="logo/glyph">
                            <g id="Group-11">
                                <path d="M13.385506,0.00711822751 L26.0803572,0 C26.5374469,-0.000789840513 26.8182306,0.483974729 26.579891,0.86198038 C24.1499693,3.91370383 22.0171559,7.25407176 20.2263437,10.928951 C19.998615,11.2903497 19.4566372,11.2903497 19.2289086,10.928951 C17.6429704,7.4794517 15.5044435,4.1311757 12.8867885,0.869097642 C12.6484488,0.49109199 12.9292325,0.00711822751 13.385506,0.00711822751" id="Fill-1" fill="#12E0B8"></path>
                                <path d="M39.3993799,28.9747834 L36.7861557,33.493967 C35.9861395,34.8798176 34.5036374,35.7333333 32.9003627,35.7333333 L7.09963728,35.7333333 C5.49555209,35.7333333 4.01467102,34.8798176 3.2130337,33.493967 L0.600620073,28.9747834 C-0.200206691,27.5897418 -0.200206691,25.8827104 0.600620073,24.4968598 L11.4855418,7.61585631 C11.5990192,7.42007356 11.8819024,7.41602846 12.0018643,7.60938415 L12.0042959,7.61423827 C14.7083021,12.0314854 12.8043121,15.640522 10.2089201,20.1232997 L8.34870007,23.3351076 C7.03884577,25.5979355 9.54912967,29.0920912 12.1129101,29.6155269 C14.4100184,30.0823313 17.2088593,30.3258462 19.9995947,30.3323183 C22.7911407,30.3258462 25.589171,30.0823313 27.8870899,29.6155269 C30.4500598,29.0920912 32.9611542,25.5979355 31.6512999,23.3351076 L29.7910799,20.1232997 C27.1956879,15.640522 25.2916979,12.0314854 27.9965146,7.61423827 L27.9981357,7.60938415 C28.1180976,7.41602846 28.4009808,7.42007356 28.5136477,7.61585631 L39.3993799,24.4968598 C40.2002067,25.8827104 40.2002067,27.5897418 39.3993799,28.9747834" id="Fill-3" fill="#FFFFFF" fill-rule="nonzero"></path>
                            </g>
                        </g>
                        <g id="logo/wordmark" transform="translate(64.000000, 11.000000)" fill="#FFFFFF">
                            <g id="Group-11">
                                <path d="M0,15.2 L0,0 L2.4,0 L2.4,15.2 L0,15.2 Z M13.8680691,5.09466597 C14.748009,5.85233035 15.2,6.94699632 15.2,8.27379274 L15.2,14.9737612 L15.2,15.2 L14.5640872,15.2 C13.6096168,15.2 12.8378663,14.4423356 12.8378663,13.5079221 L12.8378663,8.27379274 C12.8378663,7.62099947 12.6659654,7.15673856 12.2993238,6.8421252 C11.9134485,6.50512362 11.246281,6.31541294 10.4096168,6.31541294 C9.5513148,6.31541294 8.88414726,6.50512362 8.49827198,6.8421252 C8.13283246,7.15673856 7.96093163,7.62099947 7.96093163,8.27379274 L7.96093163,13.5079221 C7.96093163,14.4423356 7.18918107,15.2 6.23471074,15.2 L5.6,15.2 L5.6,14.9737612 L5.6,4 L7.96093163,4 L7.96093163,4.46308259 C8.64853494,4.16850079 9.46356123,4 10.4096168,4 C11.8485349,4 13.008565,4.37942136 13.8680691,5.09466597 Z M27.698272,6.8421252 C27.3340346,7.15791689 27.1621337,7.62099947 27.1621337,8.27379274 L27.1621337,8.44229353 L32.0378663,8.44229353 L32.0378663,8.27379274 C32.0378663,7.62099947 31.8659654,7.15791689 31.5005259,6.8421252 C31.1134485,6.50512362 30.4474831,6.31541294 29.6096168,6.31541294 C28.7513148,6.31541294 28.0853494,6.50512362 27.698272,6.8421252 Z M33.0680691,5.09466597 C33.948009,5.85233035 34.4,6.94699632 34.4,8.27379274 L34.4,10.7577065 L27.1621337,10.7577065 L27.1621337,10.9262073 C27.1621337,11.5790005 27.3340346,12.063293 27.698272,12.3578748 C28.0853494,12.6948764 28.7513148,12.8834087 29.6096168,12.8834087 L29.8464313,12.8834087 C30.5123967,12.8834087 31.0485349,12.7785376 31.4572502,12.5687954 C31.779414,12.4002946 31.9945905,12.1469542 32.1232156,11.8311625 L34.3134485,12.6948764 C33.9275733,13.6422514 32.8324568,15.2 29.8464313,15.2 L29.6096168,15.2 C28.150263,15.2 26.9902329,14.8417885 26.1307288,14.105334 C25.2712246,13.3476696 24.8,12.2518254 24.8,10.9262073 L24.8,8.27379274 C24.8,6.94699632 25.2712246,5.85233035 26.1307288,5.09466597 C26.9902329,4.37942136 28.150263,4 29.6096168,4 C31.0485349,4 32.208565,4.37942136 33.0680691,5.09466597 Z M39.80014,10.7928994 C39.80014,11.5525348 39.9188244,12.1383656 40.1405178,12.4871901 C40.2401679,12.6379018 40.4204339,12.8117064 40.8,12.8117064 L40.8,15.2 C40.2995101,15.2 39.8404479,15.0918279 39.4205738,14.8754838 C38.9995801,14.6360467 38.6390483,14.310315 38.3591323,13.8764113 C37.8597621,13.1167759 37.6,12.0739485 37.6,10.7928994 L37.6,0 L39.80014,0 L39.80014,10.7928994 Z M44.60014,10.7928994 C44.60014,11.5525348 44.7188244,12.1383656 44.9405178,12.4871901 C45.0401679,12.6379018 45.2193142,12.8117064 45.6,12.8117064 L45.6,15.2 C45.0995101,15.2 44.6404479,15.0918279 44.2205738,14.8754838 C43.7995801,14.6360467 43.4390483,14.310315 43.1591323,13.8764113 C42.6597621,13.1167759 42.4,12.0739485 42.4,10.7928994 L42.4,0 L44.60014,0 L44.60014,10.7928994 Z M48.8,15.2 L48.8,4 L51.2,4 L51.2,15.2 L48.8,15.2 Z M56.4917541,6.92737145 C56.1283358,7.25263494 55.9568216,7.72960715 55.9568216,8.4019802 L55.9568216,11.1339508 C55.9568216,11.8281699 56.1283358,12.3051421 56.4917541,12.6304056 C56.877961,12.9763015 57.5424288,13.1498563 58.3988006,13.1498563 C59.2347826,13.1498563 59.8992504,12.9763015 60.3070465,12.6304056 C60.650075,12.3051421 60.8431784,11.8281699 60.8431784,11.1339508 L60.8431784,8.4019802 C60.8431784,7.72960715 60.650075,7.25263494 60.3070465,6.92737145 C59.8992504,6.5802619 59.2347826,6.38486107 58.3988006,6.38486107 C57.5424288,6.38486107 56.877961,6.5802619 56.4917541,6.92737145 Z M63.2,14.7992335 C63.2,16.1646119 62.7274363,17.2921111 61.8494753,18.0737145 C61.0146927,18.8322581 59.8344828,19.2 58.3988006,19.2 L58.1637181,19.2 C55.164018,19.2 54.0701649,17.5955286 53.6851574,16.6197381 L55.8704648,15.7313318 C56,16.0553817 56.2350825,16.3163207 56.5565217,16.4898754 C56.9427286,16.7071223 57.5004498,16.8151389 58.1637181,16.8151389 L58.3988006,16.8151389 C59.2347826,16.8151389 59.8992504,16.6197381 60.3070465,16.2726286 C60.6068966,16.0129032 60.7784108,15.6002555 60.8215892,15.0795912 C60.1355322,15.3842223 59.3211394,15.535931 58.3988006,15.535931 C56.9427286,15.535931 55.7853073,15.1669754 54.9505247,14.4084318 C54.0701649,13.6498882 53.6,12.4993293 53.6,11.1339508 L53.6,8.4019802 C53.6,7.03538805 54.0701649,5.90788885 54.9505247,5.1274992 C55.7853073,4.39080166 56.9427286,4 58.3988006,4 C59.3211394,4 60.1571214,4.15170872 60.8431784,4.47697221 L60.8431784,4 L63.2,4 L63.2,14.7992335 Z M69.298272,6.8421252 C68.9340346,7.15791689 68.7621337,7.62099947 68.7621337,8.27379274 L68.7621337,8.44229353 L73.6378663,8.44229353 L73.6378663,8.27379274 C73.6378663,7.62099947 73.4659654,7.15791689 73.1005259,6.8421252 C72.7134485,6.50512362 72.0474831,6.31541294 71.2096168,6.31541294 C70.3513148,6.31541294 69.6853494,6.50512362 69.298272,6.8421252 Z M74.6680691,5.09466597 C75.548009,5.85233035 76,6.94699632 76,8.27379274 L76,10.7577065 L68.7621337,10.7577065 L68.7621337,10.9262073 C68.7621337,11.5790005 68.9340346,12.063293 69.298272,12.3578748 C69.6853494,12.6948764 70.3513148,12.8834087 71.2096168,12.8834087 L71.4464313,12.8834087 C72.1123967,12.8834087 72.6485349,12.7785376 73.0572502,12.5687954 C73.379414,12.4002946 73.5945905,12.1469542 73.7232156,11.8311625 L75.9134485,12.6948764 C75.5275733,13.6422514 74.4324568,15.2 71.4464313,15.2 L71.2096168,15.2 C69.750263,15.2 68.5902329,14.8417885 67.7307288,14.105334 C66.8712246,13.3476696 66.4,12.2518254 66.4,10.9262073 L66.4,8.27379274 C66.4,6.94699632 66.8712246,5.85233035 67.7307288,5.09466597 C68.5902329,4.37942136 69.750263,4 71.2096168,4 C72.6485349,4 73.808565,4.37942136 74.6680691,5.09466597 Z M105.085221,10.2916045 C104.119697,10.2916045 103.357573,10.4646569 102.864138,10.7889789 C102.438504,11.0915181 102.235103,11.5029714 102.235103,12.0427012 C102.235103,12.6054241 102.438504,13.0156672 102.864138,13.3182064 C103.357573,13.6425284 104.119697,13.8155808 105.085221,13.8155808 L105.6,13.8155808 C106.722469,13.8155808 107.574993,13.5783901 108.134973,13.1027985 C108.673607,12.6477796 108.964897,11.95557 108.964897,11.0697353 L108.964897,10.2916045 L105.085221,10.2916045 Z M105.6,4 C107.080303,4 108.247973,4.36667747 109.099241,5.05888709 C109.951766,5.77287952 110.4,6.83176661 110.4,8.12905457 L110.4,15.2 L108.964897,15.2 L108.964897,14.2488169 C108.134973,14.875678 107.013759,15.2 105.6,15.2 L105.085221,15.2 C103.804551,15.2 102.773738,14.9398163 102.034214,14.4424419 C101.22689,13.8809292 100.8,13.0592328 100.8,12.0427012 C100.8,11.0479525 101.22689,10.2274662 102.034214,9.66474338 C102.773738,9.16736899 103.804551,8.90718531 105.085221,8.90718531 L108.964897,8.90718531 L108.964897,8.12905457 C108.964897,7.24321988 108.673607,6.55101026 108.134973,6.09720151 C107.574993,5.62160994 106.722469,5.38441923 105.6,5.38441923 L105.578656,5.38441923 C104.523986,5.38441923 103.716662,5.59982712 103.155428,6.01007023 C102.639393,6.37916802 102.325504,6.96246353 102.235103,7.71881145 L100.8226,7.56754187 C100.934345,6.44330632 101.450379,5.513906 102.280303,4.9076175 C103.110228,4.30253917 104.208841,4 105.578656,4 L105.6,4 Z M118.226929,5.38441923 C117.146142,5.38441923 116.302572,5.62160994 115.762784,6.09720151 C115.24357,6.55101026 114.983359,7.24321988 114.983359,8.13026472 L114.983359,15.2 L113.6,15.2 L113.6,4 L114.983359,4 L114.983359,4.95118314 C115.783359,4.32432199 116.865356,4 118.226929,4 L119.2,4 L119.2,5.38441923 L118.226929,5.38441923 Z M129.6,15.2 L129.6,4 L131.2,4 L131.2,15.2 L129.6,15.2 Z M139.023605,1.39032542 C138.242732,1.39032542 137.657381,1.56411609 137.266338,1.86794595 C136.919013,2.17177581 136.767211,2.58376909 136.767211,3.17076837 L136.767211,3.95221876 L140,3.95221876 L140,5.34254418 L136.767211,5.34254418 L136.767211,15.2 L135.379127,15.2 L135.379127,5.34254418 L133.6,5.34254418 L133.6,3.95221876 L135.379127,3.95221876 L135.379127,3.17076837 C135.379127,2.17177581 135.725237,1.36844967 136.377381,0.804541457 C137.027097,0.283169425 137.895408,0 139.023605,0 L140,0 L140,1.39032542 L139.023605,1.39032542 Z M145.885221,10.2916045 C144.919697,10.2916045 144.157573,10.4646569 143.664138,10.7889789 C143.238504,11.0915181 143.035103,11.5029714 143.035103,12.0427012 C143.035103,12.6054241 143.238504,13.0156672 143.664138,13.3182064 C144.157573,13.6425284 144.919697,13.8155808 145.885221,13.8155808 L146.4,13.8155808 C147.522469,13.8155808 148.374993,13.5783901 148.934973,13.1027985 C149.473607,12.6477796 149.764897,11.95557 149.764897,11.0697353 L149.764897,10.2916045 L145.885221,10.2916045 Z M146.4,4 C147.880303,4 149.047973,4.36667747 149.899241,5.05888709 C150.751766,5.77287952 151.2,6.83176661 151.2,8.12905457 L151.2,15.2 L149.764897,15.2 L149.764897,14.2488169 C148.934973,14.875678 147.813759,15.2 146.4,15.2 L145.885221,15.2 C144.604551,15.2 143.573738,14.9398163 142.834214,14.4424419 C142.02689,13.8809292 141.6,13.0592328 141.6,12.0427012 C141.6,11.0479525 142.02689,10.2274662 142.834214,9.66474338 C143.573738,9.16736899 144.604551,8.90718531 145.885221,8.90718531 L149.764897,8.90718531 L149.764897,8.12905457 C149.764897,7.24321988 149.473607,6.55101026 148.934973,6.09720151 C148.374993,5.62160994 147.522469,5.38441923 146.4,5.38441923 L146.378656,5.38441923 C145.323986,5.38441923 144.516662,5.59982712 143.955428,6.01007023 C143.439393,6.37916802 143.125504,6.96246353 143.035103,7.71881145 L141.6226,7.56754187 C141.734345,6.44330632 142.250379,5.513906 143.080303,4.9076175 C143.910228,4.30253917 145.008841,4 146.378656,4 L146.4,4 Z M160.781458,4.58335855 C161.547194,4.99364599 162.080347,5.59878971 162.4,6.39878971 L161.121388,6.91800303 C160.929358,6.42057489 160.610897,6.0526475 160.14096,5.79364599 C159.630469,5.53464448 158.968501,5.38335855 158.159827,5.38335855 C157.094714,5.38335855 156.262185,5.62057489 155.731418,6.09621785 C155.218542,6.55007564 154.963296,7.24236006 154.963296,8.12950076 L154.963296,11.069289 C154.963296,11.9564297 155.218542,12.6487141 155.731418,13.1025719 C156.262185,13.5782148 157.094714,13.8154312 158.159827,13.8154312 C158.968501,13.8154312 159.630469,13.6641452 160.14096,13.4051437 C160.610897,13.1461422 160.929358,12.7782148 161.121388,12.2807867 L162.4,12.8 C162.080347,13.6 161.547194,14.2051437 160.781458,14.6166415 C160.077745,15.0051437 159.182001,15.2 158.159827,15.2 C156.753592,15.2 155.624072,14.8320726 154.835674,14.1397882 C154.025806,13.4269289 153.6,12.3679274 153.6,11.069289 L153.6,8.12950076 C153.6,6.83086233 154.025806,5.77186082 154.835674,5.05900151 C155.624072,4.3667171 156.753592,4 158.159827,4 C159.182001,4 160.077745,4.19364599 160.781458,4.58335855 Z M177.08065,4 C178.160461,4 179.104352,4.19485628 179.84688,4.58335855 C180.656109,4.99485628 181.21741,5.6 181.555952,6.4 L180.22947,6.91921331 C180.004195,6.42057489 179.666911,6.05385779 179.172313,5.79485628 C178.632407,5.53464448 177.936445,5.38456884 177.08065,5.38456884 L176.811327,5.38456884 C175.640902,5.38456884 174.742318,5.55642965 174.158364,5.92435703 C173.663765,6.20514372 173.43849,6.59485628 173.43849,7.13464448 C173.43849,7.69742814 173.663765,8.08593041 174.158364,8.36792738 C174.742318,8.73585477 175.640902,8.90771558 176.811327,8.90771558 C178.249816,8.90771558 179.397588,9.16792738 180.206817,9.64357035 C181.128055,10.2051437 181.6,11.0269289 181.6,12.0435703 C181.6,13.081997 181.128055,13.9037821 180.206817,14.4653555 C179.397588,14.9409985 178.249816,15.2 176.811327,15.2 L176.542003,15.2 C175.439539,15.2 174.495648,15.006354 173.75312,14.6166415 C172.943891,14.206354 172.38259,13.6012103 172.045307,12.8 L173.393183,12.2807867 C173.594546,12.7794251 173.933089,13.1461422 174.427687,13.4051437 C174.967593,13.6653555 175.687467,13.8166415 176.542003,13.8166415 L176.811327,13.8166415 C177.95784,13.8166415 178.857682,13.6435703 179.441636,13.2768533 C179.936235,12.9948563 180.16151,12.606354 180.16151,12.0435703 C180.16151,11.5037821 179.936235,11.1140696 179.441636,10.8332829 C178.857682,10.4653555 177.95784,10.2922844 176.811327,10.2922844 C175.350184,10.2922844 174.225066,10.0320726 173.393183,9.55642965 C172.471945,8.99485628 172,8.1730711 172,7.13464448 C172,6.11800303 172.471945,5.29742814 173.393183,4.73464448 C174.225066,4.25900151 175.350184,4 176.811327,4 L177.08065,4 Z M50.1818673,2.31157298 C50.1004193,2.42947567 49.9001375,2.42947567 49.8186896,2.31157298 L48.4287339,0.267548418 C48.347286,0.148512045 48.4487621,0 48.6103227,0 L51.3902341,0 C51.5517948,0 51.6519357,0.148512045 51.571823,0.267548418 L50.1818673,2.31157298 Z M130.569805,2.29026964 C130.493642,2.43657679 130.306358,2.43657679 130.230195,2.29026964 L129.226349,0.33059789 C129.151435,0.184290739 129.245077,0 129.396153,0 L131.403847,0 C131.554923,0 131.648565,0.184290739 131.573651,0.33059789 L130.569805,2.29026964 Z M23.2,3.64868063 L23.2,6.03697425 L20.8689542,6.03697425 L20.8689542,10.7928994 C20.8689542,11.4650248 21.0542484,11.964561 21.3813725,12.2684152 C21.7691176,12.6160243 22.3821895,12.8117064 23.2,12.8117064 L23.2,15.2 C21.8102941,15.2 20.7053922,14.8317288 19.9093137,14.0720934 C19.0720588,13.2905805 18.622549,12.1602431 18.622549,10.7928994 L18.622549,6.03697425 L17.6,6.03697425 L17.6,3.64868063 L18.622549,3.64868063 L18.622549,0 L20.8689542,0 L20.8689542,3.64868063 L23.2,3.64868063 Z M126.4,3.95253478 L126.4,5.34297137 L123.167824,5.34297137 L123.167824,11.0529986 C123.167824,11.9438989 123.427661,12.6379018 123.948549,13.093683 C124.490078,13.5725572 125.314513,13.8107788 126.4,13.8107788 L126.4,15.2 C124.968469,15.2 123.840486,14.8317288 123.01605,14.1365105 C122.21347,13.4206301 121.77879,12.3559252 121.77879,11.0529986 L121.77879,5.34297137 L120,5.34297137 L120,3.95253478 L121.77879,3.95253478 L121.77879,0 L123.167824,0 L123.167824,3.95253478 L126.4,3.95253478 Z M170.4,3.95253478 L170.4,5.34297137 L167.167824,5.34297137 L167.167824,11.0529986 C167.167824,11.9438989 167.427661,12.6379018 167.948549,13.093683 C168.490078,13.5725572 169.314513,13.8107788 170.4,13.8107788 L170.4,15.2 C168.968469,15.2 167.840486,14.8317288 167.01605,14.1365105 C166.21347,13.4206301 165.77879,12.3559252 165.77879,11.0529986 L165.77879,5.34297137 L164,5.34297137 L164,3.95253478 L165.77879,3.95253478 L165.77879,0 L167.167824,0 L167.167824,3.95253478 L170.4,3.95253478 Z M96,3.64868063 L96,6.03697425 L93.6689542,6.03697425 L93.6689542,10.7928994 C93.6689542,11.4650248 93.8542484,11.964561 94.1813725,12.2684152 C94.5691176,12.6160243 95.1821895,12.8117064 96,12.8117064 L96,15.2 C94.6091503,15.2 93.5053922,14.8317288 92.7093137,14.0720934 C91.8720588,13.2905805 91.4214052,12.1602431 91.4214052,10.7928994 L91.4214052,6.03697425 L90.4,6.03697425 L90.4,3.64868063 L91.4214052,3.64868063 L91.4214052,0 L93.6689542,0 L93.6689542,3.64868063 L96,3.64868063 Z M86.6680691,5.09466597 C87.548009,5.85233035 88,6.94699632 88,8.27379274 L88,14.9737612 L88,15.2 L87.3640872,15.2 C86.4108189,15.2 85.6378663,14.4423356 85.6378663,13.5079221 L85.6378663,8.27379274 C85.6378663,7.62099947 85.4659654,7.15673856 85.1005259,6.8421252 C84.7134485,6.50512362 84.046281,6.31541294 83.2096168,6.31541294 C82.3513148,6.31541294 81.6841473,6.50512362 81.298272,6.8421252 C80.9340346,7.15673856 80.7621337,7.62099947 80.7621337,8.27379274 L80.7621337,13.5079221 C80.7621337,14.4423356 79.9891811,15.2 79.0359128,15.2 L78.4,15.2 L78.4,14.9737612 L78.4,4 L80.7621337,4 L80.7621337,4.46308259 C81.4485349,4.16850079 82.2647633,4 83.2096168,4 C84.6485349,4 85.808565,4.37942136 86.6680691,5.09466597 Z" id="Combined-Shape" fill-rule="nonzero"></path>
                            </g>
                        </g>
                    </g>
                </g>
            </g>
        </g>
    </g>
</svg>